<svg xmlns="http://www.w3.org/2000/svg" width="755.906" height="755.906" viewBox="0 0 200 200" xmlns:v="https://vecta.io/nano"><g transform="matrix(.690678 0 0 .690678 -4712.5055 -1691.5988)"><path d="M6993.842 2579.315h.574zm8.229 1.641v40.885h40.886a18.14 18.14 0 0 0-3.333-4.967l-32.438-32.437a18.36 18.36 0 0 0-5.115-3.48zm36.705 35.063l.406.406-.406-.406zm-143.735 71.96c.822 1.811 1.944 3.497 3.348 4.98l32.485 32.484a18.36 18.36 0 0 0 5.054 3.422v-40.887zm3.776 5.416c1.086 1.086 0 0 0 0zm44.764 37.111h0z" fill="#085d5c" fill-opacity=".753"/><path d="M6993.842 2579.312h.574zm-57.912.01v42.519h-42.521v58.906c.05 2.504.604 4.966 1.632 7.234h40.889v-66.139h66.141v-40.871c-2.203-1.006-4.608-1.589-7.1-1.65zm-37.113 114.076c1.086 1.086 0 0 0 0z" fill="teal"/><path d="M7038.776 2616.019l.406.406-.406-.406zm-36.705 5.822v66.139h-66.143v40.887a18.16 18.16 0 0 0 7.029 1.635h101.633v-101.426c-.05-2.504-.604-4.966-1.633-7.234zm-58.49 108.666h0z" fill="#044"/><path d="M6969.001 2463.91l-134.844 134.844h59.252v10.801h30.236v-29.687l45.358-45.358 67.138 64.244h67.702l-31.555-31.555v-53.695h-37.797v15.896z" fill="#d6ae70"/></g></svg>